# xmcd CD database file
#
# Track frame offsets:
#	150
#	27610
#	53132
#	74417
#	95997
#	112325
#	135772
#	159087
#	185642
#	210765
#	228349
#
# Disc length: 3339 seconds
#
# Revision: 0
# Processed by: cddbd v1.5.1PL0 Copyright (c) Steve Scherf et al.
# Submitted via: CDex 1.51
#
DISCID=960d090b
DTITLE=Overkill - Relixlv
DYEAR=2005
DGENRE=Thrash Metal
TTITLE0=Within Your Eyes
TTITLE1=Love
TTITLE2=Loaded Rack
TTITLE3=Bats In The Belfry
TTITLE4=A Pound Of Flesh
TTITLE5=Keeper
TTITLE6=Wheelz
TTITLE7=The Mark
TTITLE8=Play The Ace
TTITLE9=Old School
TTITLE10=Coma (Live At Club Citta' 2004)(Bonus Track)
EXTD=YEAR: 2005
EXTT0=
EXTT1=
EXTT2=
EXTT3=
EXTT4=
EXTT5=
EXTT6=
EXTT7=
EXTT8=
EXTT9=
EXTT10=
PLAYORDER=
